<mxfile host="app.diagrams.net" agent="Mozilla/5.0 (Windows NT 10.0; Win64; x64) AppleWebKit/537.36 (KHTML, like Gecko) Chrome/130.0.0.0 Safari/537.36" version="24.8.3">
  <diagram name="Page-1" id="6wKL5GbLCDh1dktrGKtv">
    <mxGraphModel dx="3522" dy="564" grid="1" gridSize="10" guides="1" tooltips="1" connect="1" arrows="1" fold="1" page="1" pageScale="1" pageWidth="850" pageHeight="1100" math="0" shadow="0">
      <root>
        <mxCell id="0" />
        <mxCell id="1" parent="0" />
        <mxCell id="XEZ2Rfoquya0HTRO3XUA-1" value="&lt;font face=&quot;Courier New&quot;&gt;FileService&lt;/font&gt;" style="shape=umlLifeline;perimeter=lifelinePerimeter;whiteSpace=wrap;html=1;container=0;dropTarget=0;collapsible=0;recursiveResize=0;outlineConnect=0;portConstraint=eastwest;newEdgeStyle={&quot;edgeStyle&quot;:&quot;elbowEdgeStyle&quot;,&quot;elbow&quot;:&quot;vertical&quot;,&quot;curved&quot;:0,&quot;rounded&quot;:0};" parent="1" vertex="1">
          <mxGeometry x="-2270" y="70" width="120" height="660" as="geometry" />
        </mxCell>
        <mxCell id="XEZ2Rfoquya0HTRO3XUA-2" value="" style="html=1;points=[];perimeter=orthogonalPerimeter;outlineConnect=0;targetShapes=umlLifeline;portConstraint=eastwest;newEdgeStyle={&quot;edgeStyle&quot;:&quot;elbowEdgeStyle&quot;,&quot;elbow&quot;:&quot;vertical&quot;,&quot;curved&quot;:0,&quot;rounded&quot;:0};" parent="XEZ2Rfoquya0HTRO3XUA-1" vertex="1">
          <mxGeometry x="55" y="240" width="10" height="370" as="geometry" />
        </mxCell>
        <mxCell id="XEZ2Rfoquya0HTRO3XUA-3" value="&lt;pre style=&quot;text-align: left; background-color: rgb(251, 251, 251); color: rgb(8, 8, 8);&quot;&gt;&lt;font face=&quot;Courier New&quot;&gt; &lt;/font&gt;&lt;/pre&gt;" style="html=1;verticalAlign=bottom;startArrow=oval;endArrow=block;startSize=8;edgeStyle=elbowEdgeStyle;elbow=vertical;curved=0;rounded=0;" parent="XEZ2Rfoquya0HTRO3XUA-1" target="nw0lZgJD1ja48a-RentN-4" edge="1">
          <mxGeometry x="-1" y="80" relative="1" as="geometry">
            <mxPoint x="-170" y="70" as="sourcePoint" />
            <Array as="points">
              <mxPoint x="-150" y="70" />
            </Array>
            <mxPoint x="-70" y="42" as="offset" />
          </mxGeometry>
        </mxCell>
        <mxCell id="XEZ2Rfoquya0HTRO3XUA-4" value="&lt;pre style=&quot;text-align: left;&quot;&gt;&lt;font style=&quot;&quot; face=&quot;Courier New&quot;&gt;loadFile(from_file,toFile) &lt;/font&gt;&lt;/pre&gt;" style="edgeLabel;html=1;align=center;verticalAlign=middle;resizable=0;points=[];fontFamily=Helvetica;fontSize=11;fontColor=default;labelBackgroundColor=none;autosize=1;fillColor=none;gradientColor=none;" parent="XEZ2Rfoquya0HTRO3XUA-3" vertex="1" connectable="0">
          <mxGeometry x="-0.3136" y="2" width="200" height="50" relative="1" as="geometry">
            <mxPoint x="-62" y="-36" as="offset" />
          </mxGeometry>
        </mxCell>
        <mxCell id="nw0lZgJD1ja48a-RentN-4" value="" style="html=1;points=[];perimeter=orthogonalPerimeter;outlineConnect=0;targetShapes=umlLifeline;portConstraint=eastwest;newEdgeStyle={&quot;edgeStyle&quot;:&quot;elbowEdgeStyle&quot;,&quot;elbow&quot;:&quot;vertical&quot;,&quot;curved&quot;:0,&quot;rounded&quot;:0};" vertex="1" parent="1">
          <mxGeometry x="-2215" y="132" width="10" height="163" as="geometry" />
        </mxCell>
        <mxCell id="XEZ2Rfoquya0HTRO3XUA-7" value="&lt;font face=&quot;Courier New&quot;&gt;DatabaseService&lt;/font&gt;" style="shape=umlLifeline;perimeter=lifelinePerimeter;whiteSpace=wrap;html=1;container=0;dropTarget=0;collapsible=0;recursiveResize=0;outlineConnect=0;portConstraint=eastwest;newEdgeStyle={&quot;edgeStyle&quot;:&quot;elbowEdgeStyle&quot;,&quot;elbow&quot;:&quot;vertical&quot;,&quot;curved&quot;:0,&quot;rounded&quot;:0};" parent="1" vertex="1">
          <mxGeometry x="-2010" y="72" width="200" height="660" as="geometry" />
        </mxCell>
        <mxCell id="XEZ2Rfoquya0HTRO3XUA-8" style="edgeStyle=elbowEdgeStyle;rounded=0;orthogonalLoop=1;jettySize=auto;html=1;elbow=vertical;curved=0;fontFamily=Helvetica;fontSize=11;fontColor=default;labelBackgroundColor=none;autosize=1;resizable=0;" parent="XEZ2Rfoquya0HTRO3XUA-7" source="XEZ2Rfoquya0HTRO3XUA-9" target="XEZ2Rfoquya0HTRO3XUA-7" edge="1">
          <mxGeometry relative="1" as="geometry">
            <mxPoint x="250" y="579.9999999999998" as="targetPoint" />
            <Array as="points">
              <mxPoint x="100" y="440" />
            </Array>
          </mxGeometry>
        </mxCell>
        <mxCell id="XEZ2Rfoquya0HTRO3XUA-9" value="" style="html=1;points=[];perimeter=orthogonalPerimeter;outlineConnect=0;targetShapes=umlLifeline;portConstraint=eastwest;newEdgeStyle={&quot;edgeStyle&quot;:&quot;elbowEdgeStyle&quot;,&quot;elbow&quot;:&quot;vertical&quot;,&quot;curved&quot;:0,&quot;rounded&quot;:0};" parent="XEZ2Rfoquya0HTRO3XUA-7" vertex="1">
          <mxGeometry x="95" y="278" width="10" height="252" as="geometry" />
        </mxCell>
        <mxCell id="XEZ2Rfoquya0HTRO3XUA-10" style="edgeStyle=elbowEdgeStyle;rounded=0;orthogonalLoop=1;jettySize=auto;html=1;elbow=vertical;curved=0;fontFamily=Helvetica;fontSize=11;fontColor=default;labelBackgroundColor=none;autosize=1;resizable=0;" parent="XEZ2Rfoquya0HTRO3XUA-7" source="XEZ2Rfoquya0HTRO3XUA-7" target="XEZ2Rfoquya0HTRO3XUA-9" edge="1">
          <mxGeometry relative="1" as="geometry">
            <mxPoint x="210" y="439.9999999999998" as="targetPoint" />
            <Array as="points">
              <mxPoint x="130" y="380" />
            </Array>
          </mxGeometry>
        </mxCell>
        <mxCell id="XEZ2Rfoquya0HTRO3XUA-11" value="getFileId" style="html=1;align=left;spacingLeft=2;endArrow=block;rounded=0;edgeStyle=orthogonalEdgeStyle;curved=0;rounded=0;" parent="XEZ2Rfoquya0HTRO3XUA-7" source="XEZ2Rfoquya0HTRO3XUA-9" target="XEZ2Rfoquya0HTRO3XUA-12" edge="1">
          <mxGeometry relative="1" as="geometry">
            <mxPoint x="109.97" y="300" as="sourcePoint" />
            <Array as="points">
              <mxPoint x="140" y="280" />
              <mxPoint x="140" y="300" />
            </Array>
            <mxPoint x="110" y="330" as="targetPoint" />
          </mxGeometry>
        </mxCell>
        <mxCell id="XEZ2Rfoquya0HTRO3XUA-12" value="" style="html=1;points=[[0,0,0,0,5],[0,1,0,0,-5],[1,0,0,0,5],[1,1,0,0,-5]];perimeter=orthogonalPerimeter;outlineConnect=0;targetShapes=umlLifeline;portConstraint=eastwest;newEdgeStyle={&quot;curved&quot;:0,&quot;rounded&quot;:0};" parent="XEZ2Rfoquya0HTRO3XUA-7" vertex="1">
          <mxGeometry x="100" y="289" width="10" height="61" as="geometry" />
        </mxCell>
        <mxCell id="XEZ2Rfoquya0HTRO3XUA-13" value="" style="shape=umlLifeline;perimeter=lifelinePerimeter;whiteSpace=wrap;html=1;container=1;dropTarget=0;collapsible=0;recursiveResize=0;outlineConnect=0;portConstraint=eastwest;newEdgeStyle={&quot;curved&quot;:0,&quot;rounded&quot;:0};participant=umlEntity;size=40;" parent="1" vertex="1">
          <mxGeometry x="-1667" y="72" width="44" height="660" as="geometry" />
        </mxCell>
        <mxCell id="XEZ2Rfoquya0HTRO3XUA-14" value="" style="html=1;points=[[0,0,0,0,5],[0,1,0,0,-5],[1,0,0,0,5],[1,1,0,0,-5]];perimeter=orthogonalPerimeter;outlineConnect=0;targetShapes=umlLifeline;portConstraint=eastwest;newEdgeStyle={&quot;curved&quot;:0,&quot;rounded&quot;:0};" parent="XEZ2Rfoquya0HTRO3XUA-13" vertex="1">
          <mxGeometry x="17" y="396.25" width="10" height="52" as="geometry" />
        </mxCell>
        <mxCell id="XEZ2Rfoquya0HTRO3XUA-15" value="&lt;span style=&quot;font-family: &amp;quot;Courier New&amp;quot;;&quot;&gt;segments table&lt;/span&gt;" style="text;html=1;align=center;verticalAlign=middle;whiteSpace=wrap;rounded=0;" parent="1" vertex="1">
          <mxGeometry x="-1700" y="42" width="110" height="30" as="geometry" />
        </mxCell>
        <mxCell id="XEZ2Rfoquya0HTRO3XUA-16" value="&lt;font size=&quot;1&quot; face=&quot;Courier New&quot;&gt;[filePath!=exists]&lt;/font&gt;" style="text;html=1;align=center;verticalAlign=middle;whiteSpace=wrap;rounded=0;" parent="1" vertex="1">
          <mxGeometry x="-2390" y="230" width="110" height="30" as="geometry" />
        </mxCell>
        <mxCell id="XEZ2Rfoquya0HTRO3XUA-17" value="opt" style="shape=umlFrame;whiteSpace=wrap;html=1;pointerEvents=0;" parent="1" vertex="1">
          <mxGeometry x="-2390" y="200" width="260" height="110" as="geometry" />
        </mxCell>
        <mxCell id="XEZ2Rfoquya0HTRO3XUA-18" value="&lt;font face=&quot;Courier New&quot; style=&quot;font-size: 11px;&quot;&gt;ErrorOccured&lt;/font&gt;" style="html=1;verticalAlign=bottom;endArrow=open;dashed=1;endSize=8;curved=0;rounded=0;" parent="1" source="nw0lZgJD1ja48a-RentN-4" edge="1">
          <mxGeometry relative="1" as="geometry">
            <mxPoint x="-2220" y="290" as="sourcePoint" />
            <mxPoint x="-2440" y="290" as="targetPoint" />
          </mxGeometry>
        </mxCell>
        <mxCell id="XEZ2Rfoquya0HTRO3XUA-19" value="" style="shape=umlLifeline;perimeter=lifelinePerimeter;whiteSpace=wrap;html=1;container=1;dropTarget=0;collapsible=0;recursiveResize=0;outlineConnect=0;portConstraint=eastwest;newEdgeStyle={&quot;curved&quot;:0,&quot;rounded&quot;:0};participant=umlEntity;size=40;" parent="1" vertex="1">
          <mxGeometry x="-1399.17" y="72" width="43" height="660" as="geometry" />
        </mxCell>
        <mxCell id="XEZ2Rfoquya0HTRO3XUA-20" value="" style="html=1;points=[[0,0,0,0,5],[0,1,0,0,-5],[1,0,0,0,5],[1,1,0,0,-5]];perimeter=orthogonalPerimeter;outlineConnect=0;targetShapes=umlLifeline;portConstraint=eastwest;newEdgeStyle={&quot;curved&quot;:0,&quot;rounded&quot;:0};" parent="XEZ2Rfoquya0HTRO3XUA-19" vertex="1">
          <mxGeometry x="17" y="302" width="10" height="48" as="geometry" />
        </mxCell>
        <mxCell id="XEZ2Rfoquya0HTRO3XUA-21" value="&lt;font face=&quot;Courier New&quot;&gt;files table&lt;/font&gt;" style="text;html=1;align=center;verticalAlign=middle;whiteSpace=wrap;rounded=0;" parent="1" vertex="1">
          <mxGeometry x="-1420" y="40" width="85.66" height="30" as="geometry" />
        </mxCell>
        <mxCell id="XEZ2Rfoquya0HTRO3XUA-22" value="" style="shape=umlLifeline;perimeter=lifelinePerimeter;whiteSpace=wrap;html=1;container=1;dropTarget=0;collapsible=0;recursiveResize=0;outlineConnect=0;portConstraint=eastwest;newEdgeStyle={&quot;curved&quot;:0,&quot;rounded&quot;:0};participant=umlEntity;size=40;" parent="1" vertex="1">
          <mxGeometry x="-1542.83" y="72" width="44" height="660" as="geometry" />
        </mxCell>
        <mxCell id="XEZ2Rfoquya0HTRO3XUA-23" value="" style="html=1;points=[[0,0,0,0,5],[0,1,0,0,-5],[1,0,0,0,5],[1,1,0,0,-5]];perimeter=orthogonalPerimeter;outlineConnect=0;targetShapes=umlLifeline;portConstraint=eastwest;newEdgeStyle={&quot;curved&quot;:0,&quot;rounded&quot;:0};" parent="XEZ2Rfoquya0HTRO3XUA-22" vertex="1">
          <mxGeometry x="17" y="384.5" width="10" height="95.5" as="geometry" />
        </mxCell>
        <mxCell id="XEZ2Rfoquya0HTRO3XUA-24" value="&lt;span style=&quot;font-family: &amp;quot;Courier New&amp;quot;;&quot;&gt;data table&lt;/span&gt;" style="text;html=1;align=center;verticalAlign=middle;whiteSpace=wrap;rounded=0;" parent="1" vertex="1">
          <mxGeometry x="-1575.83" y="42" width="110" height="30" as="geometry" />
        </mxCell>
        <mxCell id="XEZ2Rfoquya0HTRO3XUA-25" value="" style="html=1;verticalAlign=bottom;endArrow=open;dashed=1;endSize=8;curved=0;rounded=0;" parent="1" edge="1">
          <mxGeometry relative="1" as="geometry">
            <mxPoint x="-2215" y="662.0000000000002" as="sourcePoint" />
            <mxPoint x="-2440" y="662" as="targetPoint" />
          </mxGeometry>
        </mxCell>
        <mxCell id="XEZ2Rfoquya0HTRO3XUA-26" value="&lt;font face=&quot;Courier New&quot; style=&quot;font-size: 11px;&quot;&gt;return code&lt;/font&gt;" style="edgeLabel;html=1;align=center;verticalAlign=middle;resizable=0;points=[];fontStyle=0;labelBackgroundColor=none;" parent="XEZ2Rfoquya0HTRO3XUA-25" vertex="1" connectable="0">
          <mxGeometry x="0.0611" y="-4" relative="1" as="geometry">
            <mxPoint x="-1" y="-6" as="offset" />
          </mxGeometry>
        </mxCell>
        <mxCell id="XEZ2Rfoquya0HTRO3XUA-27" style="edgeStyle=elbowEdgeStyle;rounded=0;orthogonalLoop=1;jettySize=auto;html=1;elbow=vertical;curved=0;fontFamily=Helvetica;fontSize=11;fontColor=default;labelBackgroundColor=none;autosize=1;resizable=0;" parent="1" source="XEZ2Rfoquya0HTRO3XUA-2" target="XEZ2Rfoquya0HTRO3XUA-9" edge="1">
          <mxGeometry relative="1" as="geometry">
            <mxPoint x="-2190" y="372" as="sourcePoint" />
            <mxPoint x="-1845" y="382" as="targetPoint" />
            <Array as="points">
              <mxPoint x="-2060" y="362" />
            </Array>
          </mxGeometry>
        </mxCell>
        <mxCell id="XEZ2Rfoquya0HTRO3XUA-28" value="&lt;pre style=&quot;color: rgb(8, 8, 8); text-align: left;&quot;&gt;&lt;font face=&quot;Courier New&quot;&gt;getFileStreamed(&lt;span style=&quot;color: rgb(0, 0, 0);&quot;&gt;from_file&lt;/span&gt;, &lt;span style=&quot;color: rgb(0, 0, 0);&quot;&gt;out&lt;/span&gt;, &lt;span style=&quot;color: rgb(0, 0, 0);&quot;&gt;fileId&lt;/span&gt;)&lt;/font&gt;&lt;/pre&gt;" style="edgeLabel;html=1;align=center;verticalAlign=middle;resizable=0;points=[];fontFamily=Helvetica;fontSize=11;fontColor=default;labelBackgroundColor=none;autosize=1;fillColor=none;gradientColor=none;" parent="XEZ2Rfoquya0HTRO3XUA-27" vertex="1" connectable="0">
          <mxGeometry x="0.4989" y="3" width="280" height="50" relative="1" as="geometry">
            <mxPoint x="-217" y="-37" as="offset" />
          </mxGeometry>
        </mxCell>
        <mxCell id="XEZ2Rfoquya0HTRO3XUA-29" value="&lt;font size=&quot;1&quot; face=&quot;Courier New&quot;&gt;[stream!=end]&lt;/font&gt;" style="text;html=1;align=center;verticalAlign=middle;whiteSpace=wrap;rounded=0;" parent="1" vertex="1">
          <mxGeometry x="-2000" y="462" width="60" height="30" as="geometry" />
        </mxCell>
        <mxCell id="XEZ2Rfoquya0HTRO3XUA-30" value="loop" style="shape=umlFrame;whiteSpace=wrap;html=1;pointerEvents=0;" parent="1" vertex="1">
          <mxGeometry x="-2010" y="432" width="550" height="150" as="geometry" />
        </mxCell>
        <mxCell id="XEZ2Rfoquya0HTRO3XUA-31" value="" style="html=1;verticalAlign=bottom;endArrow=open;dashed=1;endSize=8;curved=0;rounded=0;" parent="1" target="XEZ2Rfoquya0HTRO3XUA-12" edge="1">
          <mxGeometry relative="1" as="geometry">
            <mxPoint x="-1382.17" y="412" as="sourcePoint" />
            <mxPoint x="-1830" y="412" as="targetPoint" />
            <Array as="points">
              <mxPoint x="-1810" y="412" />
            </Array>
          </mxGeometry>
        </mxCell>
        <mxCell id="XEZ2Rfoquya0HTRO3XUA-32" style="edgeStyle=orthogonalEdgeStyle;rounded=0;orthogonalLoop=1;jettySize=auto;html=1;curved=0;fontFamily=Helvetica;fontSize=11;fontColor=default;labelBackgroundColor=none;autosize=1;resizable=0;" parent="1" source="XEZ2Rfoquya0HTRO3XUA-14" target="XEZ2Rfoquya0HTRO3XUA-23" edge="1">
          <mxGeometry relative="1" as="geometry">
            <Array as="points">
              <mxPoint x="-1580" y="482" />
              <mxPoint x="-1580" y="482" />
            </Array>
          </mxGeometry>
        </mxCell>
        <mxCell id="XEZ2Rfoquya0HTRO3XUA-33" value="&lt;font face=&quot;Courier New&quot;&gt;join by hash&lt;/font&gt;" style="edgeLabel;html=1;align=center;verticalAlign=middle;resizable=0;points=[];fontFamily=Helvetica;fontSize=11;fontColor=default;labelBackgroundColor=none;autosize=1;fillColor=none;gradientColor=none;" parent="XEZ2Rfoquya0HTRO3XUA-32" vertex="1" connectable="0">
          <mxGeometry x="0.2262" y="1" width="100" height="30" relative="1" as="geometry">
            <mxPoint x="-60" y="-29" as="offset" />
          </mxGeometry>
        </mxCell>
        <mxCell id="XEZ2Rfoquya0HTRO3XUA-34" style="edgeStyle=elbowEdgeStyle;rounded=0;orthogonalLoop=1;jettySize=auto;html=1;elbow=vertical;curved=0;fontFamily=Helvetica;fontSize=11;fontColor=default;labelBackgroundColor=none;autosize=1;resizable=0;" parent="1" source="XEZ2Rfoquya0HTRO3XUA-9" edge="1">
          <mxGeometry relative="1" as="geometry">
            <mxPoint x="-1835" y="472.00122807017533" as="sourcePoint" />
            <mxPoint x="-1650" y="472.00122807017533" as="targetPoint" />
          </mxGeometry>
        </mxCell>
        <mxCell id="XEZ2Rfoquya0HTRO3XUA-35" value="&lt;font face=&quot;Courier New&quot;&gt;stream from&lt;/font&gt;" style="edgeLabel;html=1;align=center;verticalAlign=middle;resizable=0;points=[];fontFamily=Helvetica;fontSize=11;fontColor=default;labelBackgroundColor=none;autosize=1;fillColor=none;gradientColor=none;" parent="XEZ2Rfoquya0HTRO3XUA-34" vertex="1" connectable="0">
          <mxGeometry x="-0.3946" width="100" height="30" relative="1" as="geometry">
            <mxPoint x="13" y="-28" as="offset" />
          </mxGeometry>
        </mxCell>
        <mxCell id="XEZ2Rfoquya0HTRO3XUA-36" style="edgeStyle=orthogonalEdgeStyle;rounded=0;orthogonalLoop=1;jettySize=auto;html=1;curved=0;fontFamily=Helvetica;fontSize=11;fontColor=default;labelBackgroundColor=none;autosize=1;resizable=0;" parent="1" source="XEZ2Rfoquya0HTRO3XUA-12" target="XEZ2Rfoquya0HTRO3XUA-20" edge="1">
          <mxGeometry relative="1" as="geometry">
            <Array as="points">
              <mxPoint x="-1760" y="392" />
              <mxPoint x="-1760" y="392" />
            </Array>
          </mxGeometry>
        </mxCell>
        <mxCell id="XEZ2Rfoquya0HTRO3XUA-37" value="" style="shape=umlLifeline;perimeter=lifelinePerimeter;whiteSpace=wrap;html=1;container=1;dropTarget=0;collapsible=0;recursiveResize=0;outlineConnect=0;portConstraint=eastwest;newEdgeStyle={&quot;curved&quot;:0,&quot;rounded&quot;:0};participant=umlEntity;size=40;" parent="1" vertex="1">
          <mxGeometry x="-1779.17" y="295" width="44" height="327" as="geometry" />
        </mxCell>
        <mxCell id="XEZ2Rfoquya0HTRO3XUA-38" value="" style="html=1;points=[[0,0,0,0,5],[0,1,0,0,-5],[1,0,0,0,5],[1,1,0,0,-5]];perimeter=orthogonalPerimeter;outlineConnect=0;targetShapes=umlLifeline;portConstraint=eastwest;newEdgeStyle={&quot;curved&quot;:0,&quot;rounded&quot;:0};" parent="XEZ2Rfoquya0HTRO3XUA-37" vertex="1">
          <mxGeometry x="17" y="230" width="10" height="25.5" as="geometry" />
        </mxCell>
        <mxCell id="XEZ2Rfoquya0HTRO3XUA-39" value="&lt;font face=&quot;Courier New&quot;&gt;output file&lt;/font&gt;" style="text;html=1;align=center;verticalAlign=middle;whiteSpace=wrap;rounded=0;" parent="1" vertex="1">
          <mxGeometry x="-1800" y="252" width="85.66" height="30" as="geometry" />
        </mxCell>
        <mxCell id="XEZ2Rfoquya0HTRO3XUA-40" value="" style="html=1;verticalAlign=bottom;endArrow=open;dashed=1;endSize=8;curved=0;rounded=0;exitX=0;exitY=1;exitDx=0;exitDy=-5;exitPerimeter=0;" parent="1" source="XEZ2Rfoquya0HTRO3XUA-23" target="XEZ2Rfoquya0HTRO3XUA-38" edge="1">
          <mxGeometry relative="1" as="geometry">
            <mxPoint x="-1955" y="702.0000000000002" as="sourcePoint" />
            <mxPoint x="-2180" y="702" as="targetPoint" />
          </mxGeometry>
        </mxCell>
        <mxCell id="XEZ2Rfoquya0HTRO3XUA-41" value="&lt;font face=&quot;Courier New&quot;&gt;bytea segment&lt;/font&gt;" style="edgeLabel;html=1;align=center;verticalAlign=middle;resizable=0;points=[];fontStyle=0;labelBackgroundColor=none;" parent="XEZ2Rfoquya0HTRO3XUA-40" vertex="1" connectable="0">
          <mxGeometry x="0.0611" y="-4" relative="1" as="geometry">
            <mxPoint x="6" y="-6" as="offset" />
          </mxGeometry>
        </mxCell>
        <mxCell id="XEZ2Rfoquya0HTRO3XUA-42" value="" style="shape=umlDestroy;html=1;" parent="1" vertex="1">
          <mxGeometry x="-1767.17" y="612" width="20" height="20" as="geometry" />
        </mxCell>
        <mxCell id="XEZ2Rfoquya0HTRO3XUA-43" value="" style="html=1;verticalAlign=bottom;endArrow=open;dashed=1;endSize=8;curved=0;rounded=0;" parent="1" edge="1">
          <mxGeometry relative="1" as="geometry">
            <mxPoint x="-1915" y="602" as="sourcePoint" />
            <mxPoint x="-2205" y="602" as="targetPoint" />
          </mxGeometry>
        </mxCell>
        <mxCell id="XEZ2Rfoquya0HTRO3XUA-44" value="&lt;font face=&quot;Courier New&quot; style=&quot;font-size: 11px;&quot;&gt;return code&lt;/font&gt;" style="edgeLabel;html=1;align=center;verticalAlign=middle;resizable=0;points=[];fontStyle=0;labelBackgroundColor=none;" parent="XEZ2Rfoquya0HTRO3XUA-43" vertex="1" connectable="0">
          <mxGeometry x="0.0611" y="-4" relative="1" as="geometry">
            <mxPoint x="-1" y="-6" as="offset" />
          </mxGeometry>
        </mxCell>
        <mxCell id="XEZ2Rfoquya0HTRO3XUA-6" value="&lt;font style=&quot;font-size: 11px;&quot; face=&quot;Courier New&quot;&gt;checkFileExistence(toPath)&lt;/font&gt;" style="html=1;align=left;spacingLeft=2;endArrow=block;rounded=0;edgeStyle=orthogonalEdgeStyle;curved=0;rounded=0;" parent="1" source="nw0lZgJD1ja48a-RentN-4" target="nw0lZgJD1ja48a-RentN-6" edge="1">
          <mxGeometry x="-0.6629" y="10" relative="1" as="geometry">
            <mxPoint x="-2115" y="180" as="sourcePoint" />
            <Array as="points">
              <mxPoint x="-2170" y="150" />
              <mxPoint x="-2170" y="170" />
            </Array>
            <mxPoint x="-2200" y="170" as="targetPoint" />
            <mxPoint as="offset" />
          </mxGeometry>
        </mxCell>
        <mxCell id="nw0lZgJD1ja48a-RentN-6" value="" style="html=1;points=[];perimeter=orthogonalPerimeter;outlineConnect=0;targetShapes=umlLifeline;portConstraint=eastwest;newEdgeStyle={&quot;edgeStyle&quot;:&quot;elbowEdgeStyle&quot;,&quot;elbow&quot;:&quot;vertical&quot;,&quot;curved&quot;:0,&quot;rounded&quot;:0};" vertex="1" parent="1">
          <mxGeometry x="-2210" y="160" width="10" height="40" as="geometry" />
        </mxCell>
      </root>
    </mxGraphModel>
  </diagram>
</mxfile>
